<mxfile host="65bd71144e">
    <diagram id="9CJpjy-ftox8OO3UyvPs" name="第 1 页">
        <mxGraphModel dx="901" dy="626" grid="1" gridSize="10" guides="1" tooltips="1" connect="1" arrows="1" fold="1" page="1" pageScale="1" pageWidth="827" pageHeight="1169" math="1" shadow="0">
            <root>
                <mxCell id="0"/>
                <mxCell id="1" parent="0"/>
                <mxCell id="112" value="&lt;font style=&quot;font-size: 8px;&quot;&gt;ACK&lt;/font&gt;" style="shape=parallelogram;perimeter=parallelogramPerimeter;whiteSpace=wrap;html=1;fixedSize=1;strokeWidth=1;fontSize=8;size=10;flipH=0;fillColor=#dae8fc;strokeColor=#6c8ebf;fontStyle=1" parent="1" vertex="1">
                    <mxGeometry x="515" y="160" width="30" height="60" as="geometry"/>
                </mxCell>
                <mxCell id="111" value="&lt;font style=&quot;font-size: 8px;&quot;&gt;DATA&lt;/font&gt;" style="shape=parallelogram;perimeter=parallelogramPerimeter;whiteSpace=wrap;html=1;fixedSize=1;strokeWidth=1;fontSize=8;size=10;flipH=1;fillColor=#d5e8d4;strokeColor=#82b366;fontStyle=1" parent="1" vertex="1">
                    <mxGeometry x="472" y="160" width="40" height="60" as="geometry"/>
                </mxCell>
                <mxCell id="78" value="&lt;font style=&quot;font-size: 8px;&quot;&gt;ACK&lt;/font&gt;" style="shape=parallelogram;perimeter=parallelogramPerimeter;whiteSpace=wrap;html=1;fixedSize=1;strokeWidth=1;fontSize=12;size=10;flipH=0;fillColor=#d5e8d4;strokeColor=#82b366;" parent="1" vertex="1">
                    <mxGeometry x="275" y="160" width="30" height="60" as="geometry"/>
                </mxCell>
                <mxCell id="77" value="&lt;font style=&quot;font-size: 8px;&quot;&gt;DATA&lt;/font&gt;" style="shape=parallelogram;perimeter=parallelogramPerimeter;whiteSpace=wrap;html=1;fixedSize=1;strokeWidth=1;fontSize=12;size=10;flipH=1;fillColor=#dae8fc;strokeColor=#6c8ebf;" parent="1" vertex="1">
                    <mxGeometry x="232" y="160" width="40" height="60" as="geometry"/>
                </mxCell>
                <mxCell id="118" value="&lt;font style=&quot;font-size: 8px;&quot;&gt;DATA&lt;/font&gt;" style="shape=parallelogram;perimeter=parallelogramPerimeter;whiteSpace=wrap;html=1;fixedSize=1;strokeWidth=1;fontSize=8;size=10;flipH=1;fillColor=#d5e8d4;strokeColor=#82b366;fontStyle=1" parent="1" vertex="1">
                    <mxGeometry x="232" y="160" width="40" height="60" as="geometry"/>
                </mxCell>
                <mxCell id="119" value="&lt;font style=&quot;font-size: 8px;&quot;&gt;ACK&lt;/font&gt;" style="shape=parallelogram;perimeter=parallelogramPerimeter;whiteSpace=wrap;html=1;fixedSize=1;strokeWidth=1;fontSize=8;size=10;flipH=0;fillColor=#dae8fc;strokeColor=#6c8ebf;fontStyle=1" parent="1" vertex="1">
                    <mxGeometry x="275" y="160" width="30" height="60" as="geometry"/>
                </mxCell>
                <mxCell id="72" value="" style="endArrow=classic;html=1;strokeWidth=1;fontSize=12;startSize=6;endSize=4;" parent="1" edge="1">
                    <mxGeometry width="50" height="50" relative="1" as="geometry">
                        <mxPoint x="182" y="120" as="sourcePoint"/>
                        <mxPoint x="612" y="120" as="targetPoint"/>
                    </mxGeometry>
                </mxCell>
                <mxCell id="73" value="" style="endArrow=classic;html=1;strokeWidth=1;fontSize=12;startSize=6;endSize=4;" parent="1" edge="1">
                    <mxGeometry width="50" height="50" relative="1" as="geometry">
                        <mxPoint x="182" y="160" as="sourcePoint"/>
                        <mxPoint x="612" y="160" as="targetPoint"/>
                    </mxGeometry>
                </mxCell>
                <mxCell id="74" value="" style="endArrow=classic;html=1;strokeWidth=1;fontSize=12;startSize=6;endSize=4;" parent="1" edge="1">
                    <mxGeometry width="50" height="50" relative="1" as="geometry">
                        <mxPoint x="182" y="220" as="sourcePoint"/>
                        <mxPoint x="612" y="220" as="targetPoint"/>
                    </mxGeometry>
                </mxCell>
                <mxCell id="75" value="" style="endArrow=classic;html=1;strokeWidth=1;fontSize=12;startSize=6;endSize=4;" parent="1" edge="1">
                    <mxGeometry width="50" height="50" relative="1" as="geometry">
                        <mxPoint x="182" y="260" as="sourcePoint"/>
                        <mxPoint x="612" y="260" as="targetPoint"/>
                    </mxGeometry>
                </mxCell>
                <mxCell id="76" value="$$ t_{4} $$" style="text;html=1;strokeColor=none;fillColor=none;align=left;verticalAlign=middle;whiteSpace=wrap;rounded=0;strokeWidth=1;fontSize=8;" parent="1" vertex="1">
                    <mxGeometry x="472" y="270" width="10" height="10" as="geometry"/>
                </mxCell>
                <mxCell id="81" value="" style="endArrow=classic;html=1;strokeWidth=1;fontSize=12;startSize=6;endSize=3;endFill=1;" parent="1" edge="1">
                    <mxGeometry width="50" height="50" relative="1" as="geometry">
                        <mxPoint x="292" y="120" as="sourcePoint"/>
                        <mxPoint x="322" y="160" as="targetPoint"/>
                    </mxGeometry>
                </mxCell>
                <mxCell id="83" value="" style="endArrow=none;dashed=1;html=1;strokeWidth=1;fontSize=8;startSize=6;endSize=3;" parent="1" edge="1">
                    <mxGeometry width="50" height="50" relative="1" as="geometry">
                        <mxPoint x="292" y="160" as="sourcePoint"/>
                        <mxPoint x="292" y="70" as="targetPoint"/>
                    </mxGeometry>
                </mxCell>
                <mxCell id="84" value="" style="endArrow=none;dashed=1;html=1;strokeWidth=1;fontSize=8;startSize=6;endSize=3;" parent="1" edge="1">
                    <mxGeometry width="50" height="50" relative="1" as="geometry">
                        <mxPoint x="321.99999999999994" y="160" as="sourcePoint"/>
                        <mxPoint x="321.99999999999994" y="89.99999999999994" as="targetPoint"/>
                    </mxGeometry>
                </mxCell>
                <mxCell id="85" value="" style="endArrow=none;dashed=1;html=1;strokeWidth=1;fontSize=8;startSize=6;endSize=3;" parent="1" edge="1">
                    <mxGeometry width="50" height="50" relative="1" as="geometry">
                        <mxPoint x="232" y="300" as="sourcePoint"/>
                        <mxPoint x="232" y="90" as="targetPoint"/>
                    </mxGeometry>
                </mxCell>
                <mxCell id="86" value="" style="endArrow=none;dashed=1;html=1;strokeWidth=1;fontSize=8;startSize=6;endSize=3;" parent="1" edge="1">
                    <mxGeometry width="50" height="50" relative="1" as="geometry">
                        <mxPoint x="472" y="300" as="sourcePoint"/>
                        <mxPoint x="472" y="90" as="targetPoint"/>
                    </mxGeometry>
                </mxCell>
                <mxCell id="93" value="" style="endArrow=none;dashed=1;html=1;strokeWidth=1;fontSize=8;startSize=6;endSize=3;" parent="1" edge="1">
                    <mxGeometry width="50" height="50" relative="1" as="geometry">
                        <mxPoint x="552.0000000000001" y="289.9999999999998" as="sourcePoint"/>
                        <mxPoint x="552" y="70" as="targetPoint"/>
                    </mxGeometry>
                </mxCell>
                <mxCell id="94" value="$$ t_{5} $$" style="text;html=1;strokeColor=none;fillColor=none;align=center;verticalAlign=middle;whiteSpace=wrap;rounded=0;strokeWidth=1;fontSize=8;" parent="1" vertex="1">
                    <mxGeometry x="492" y="270" width="10" height="10" as="geometry"/>
                </mxCell>
                <mxCell id="95" value="$$ t_{6} $$" style="text;html=1;strokeColor=none;fillColor=none;align=center;verticalAlign=middle;whiteSpace=wrap;rounded=0;strokeWidth=1;fontSize=8;" parent="1" vertex="1">
                    <mxGeometry x="517" y="270" width="10" height="10" as="geometry"/>
                </mxCell>
                <mxCell id="96" value="$$ t_{1} $$" style="text;html=1;strokeColor=none;fillColor=none;align=left;verticalAlign=middle;whiteSpace=wrap;rounded=0;strokeWidth=1;fontSize=8;" parent="1" vertex="1">
                    <mxGeometry x="302" y="100" width="10" height="10" as="geometry"/>
                </mxCell>
                <mxCell id="97" value="$$ t_{2} $$" style="text;html=1;strokeColor=none;fillColor=none;align=left;verticalAlign=middle;whiteSpace=wrap;rounded=0;strokeWidth=1;fontSize=8;" parent="1" vertex="1">
                    <mxGeometry x="382" y="100" width="10" height="10" as="geometry"/>
                </mxCell>
                <mxCell id="98" value="" style="endArrow=none;dashed=1;html=1;strokeWidth=1;fontSize=8;startSize=6;endSize=3;" parent="1" edge="1">
                    <mxGeometry width="50" height="50" relative="1" as="geometry">
                        <mxPoint x="502.0000000000001" y="159.99999999999977" as="sourcePoint"/>
                        <mxPoint x="502.0000000000001" y="89.99999999999977" as="targetPoint"/>
                    </mxGeometry>
                </mxCell>
                <mxCell id="100" value="" style="endArrow=classic;startArrow=classic;html=1;strokeWidth=1;fontSize=2;startSize=2;endSize=2;" parent="1" edge="1">
                    <mxGeometry width="50" height="50" relative="1" as="geometry">
                        <mxPoint x="232" y="290" as="sourcePoint"/>
                        <mxPoint x="472" y="290" as="targetPoint"/>
                    </mxGeometry>
                </mxCell>
                <mxCell id="101" value="$$ t_{3} $$" style="text;html=1;strokeColor=none;fillColor=none;align=left;verticalAlign=middle;whiteSpace=wrap;rounded=0;strokeWidth=1;fontSize=8;" parent="1" vertex="1">
                    <mxGeometry x="482" y="100" width="10" height="10" as="geometry"/>
                </mxCell>
                <mxCell id="102" value="$$ t_{7} $$" style="text;html=1;strokeColor=none;fillColor=none;align=center;verticalAlign=middle;whiteSpace=wrap;rounded=0;strokeWidth=1;fontSize=8;" parent="1" vertex="1">
                    <mxGeometry x="537" y="270" width="10" height="10" as="geometry"/>
                </mxCell>
                <mxCell id="103" value="&lt;font style=&quot;font-size: 7px;&quot;&gt;校正&lt;/font&gt;" style="text;html=1;strokeColor=none;fillColor=none;align=center;verticalAlign=middle;whiteSpace=wrap;rounded=0;strokeWidth=1;fontSize=7;" parent="1" vertex="1">
                    <mxGeometry x="532" y="250" width="20" height="10" as="geometry"/>
                </mxCell>
                <mxCell id="104" value="$$ CI $$" style="text;html=1;strokeColor=none;fillColor=none;align=left;verticalAlign=middle;whiteSpace=wrap;rounded=0;strokeWidth=1;fontSize=10;" parent="1" vertex="1">
                    <mxGeometry x="342" y="280" width="20" height="10" as="geometry"/>
                </mxCell>
                <mxCell id="105" value="" style="endArrow=classic;startArrow=classic;html=1;strokeWidth=1;fontSize=2;startSize=2;endSize=2;" parent="1" edge="1">
                    <mxGeometry width="50" height="50" relative="1" as="geometry">
                        <mxPoint x="292" y="80" as="sourcePoint"/>
                        <mxPoint x="552" y="80" as="targetPoint"/>
                    </mxGeometry>
                </mxCell>
                <mxCell id="106" value="$$ D&amp;nbsp;$$" style="text;html=1;strokeColor=none;fillColor=none;align=left;verticalAlign=middle;whiteSpace=wrap;rounded=0;strokeWidth=1;fontSize=10;" parent="1" vertex="1">
                    <mxGeometry x="414" y="70" width="10" height="10" as="geometry"/>
                </mxCell>
                <mxCell id="113" value="" style="endArrow=none;dashed=1;html=1;strokeWidth=1;fontSize=8;startSize=6;endSize=3;" parent="1" edge="1">
                    <mxGeometry width="50" height="50" relative="1" as="geometry">
                        <mxPoint x="482" y="290" as="sourcePoint"/>
                        <mxPoint x="482" y="220" as="targetPoint"/>
                    </mxGeometry>
                </mxCell>
                <mxCell id="114" value="" style="endArrow=none;dashed=1;html=1;strokeWidth=1;fontSize=8;startSize=6;endSize=3;" parent="1" edge="1">
                    <mxGeometry width="50" height="50" relative="1" as="geometry">
                        <mxPoint x="512.0000000000002" y="289.9999999999998" as="sourcePoint"/>
                        <mxPoint x="512.0000000000002" y="219.99999999999977" as="targetPoint"/>
                    </mxGeometry>
                </mxCell>
                <mxCell id="115" value="" style="endArrow=classic;html=1;strokeWidth=1;fontSize=12;startSize=6;endSize=3;" parent="1" edge="1">
                    <mxGeometry width="50" height="50" relative="1" as="geometry">
                        <mxPoint x="511.9999999999998" y="220" as="sourcePoint"/>
                        <mxPoint x="532" y="260" as="targetPoint"/>
                    </mxGeometry>
                </mxCell>
                <mxCell id="116" value="" style="endArrow=none;dashed=1;html=1;strokeWidth=1;fontSize=8;startSize=6;endSize=3;" parent="1" edge="1">
                    <mxGeometry width="50" height="50" relative="1" as="geometry">
                        <mxPoint x="532.0000000000002" y="289.9999999999998" as="sourcePoint"/>
                        <mxPoint x="532.0000000000002" y="219.99999999999977" as="targetPoint"/>
                    </mxGeometry>
                </mxCell>
                <mxCell id="120" value="主机通过Write操作&lt;br&gt;发送当前时间戳" style="text;html=1;strokeColor=none;fillColor=none;align=center;verticalAlign=middle;whiteSpace=wrap;rounded=0;strokeWidth=1;fontSize=6;" parent="1" vertex="1">
                    <mxGeometry x="262" y="53" width="60" height="20" as="geometry"/>
                </mxCell>
                <mxCell id="123" value="从机收到时间戳&lt;br&gt;并完成同步" style="text;html=1;strokeColor=none;fillColor=none;align=center;verticalAlign=middle;whiteSpace=wrap;rounded=0;strokeWidth=1;fontSize=6;" parent="1" vertex="1">
                    <mxGeometry x="522" y="53" width="60" height="20" as="geometry"/>
                </mxCell>
                <mxCell id="124" value="主机应用层" style="text;html=1;strokeColor=none;fillColor=none;align=center;verticalAlign=middle;whiteSpace=wrap;rounded=0;strokeWidth=1;fontSize=8;fontStyle=1" parent="1" vertex="1">
                    <mxGeometry x="130" y="109" width="60" height="20" as="geometry"/>
                </mxCell>
                <mxCell id="125" value="主机协议栈" style="text;html=1;strokeColor=none;fillColor=none;align=center;verticalAlign=middle;whiteSpace=wrap;rounded=0;strokeWidth=1;fontSize=8;fontStyle=1" parent="1" vertex="1">
                    <mxGeometry x="130" y="149" width="60" height="20" as="geometry"/>
                </mxCell>
                <mxCell id="126" value="从机协议栈" style="text;html=1;strokeColor=none;fillColor=none;align=center;verticalAlign=middle;whiteSpace=wrap;rounded=0;strokeWidth=1;fontSize=8;fontStyle=1" parent="1" vertex="1">
                    <mxGeometry x="130" y="209" width="60" height="20" as="geometry"/>
                </mxCell>
                <mxCell id="127" value="从机应用层" style="text;html=1;strokeColor=none;fillColor=none;align=center;verticalAlign=middle;whiteSpace=wrap;rounded=0;strokeWidth=1;fontSize=8;fontStyle=1" parent="1" vertex="1">
                    <mxGeometry x="130" y="249" width="60" height="20" as="geometry"/>
                </mxCell>
                <mxCell id="169" value="连接事件开始" style="text;html=1;strokeColor=none;fillColor=none;align=center;verticalAlign=middle;whiteSpace=wrap;rounded=0;strokeWidth=1;fontSize=6;" parent="1" vertex="1">
                    <mxGeometry x="203" y="81" width="58" height="10" as="geometry"/>
                </mxCell>
                <mxCell id="173" value="连接事件开始" style="text;html=1;strokeColor=none;fillColor=none;align=center;verticalAlign=middle;whiteSpace=wrap;rounded=0;strokeWidth=1;fontSize=6;" parent="1" vertex="1">
                    <mxGeometry x="443" y="82" width="58" height="10" as="geometry"/>
                </mxCell>
                <mxCell id="174" value="等待下一个连接事件" style="text;html=1;strokeColor=none;fillColor=none;align=center;verticalAlign=middle;whiteSpace=wrap;rounded=0;strokeWidth=1;fontSize=6;" parent="1" vertex="1">
                    <mxGeometry x="364" y="149" width="60" height="10" as="geometry"/>
                </mxCell>
            </root>
        </mxGraphModel>
    </diagram>
</mxfile>